<?xml version="1.0" encoding="UTF-8"?>
<svg width="48px" height="48px" viewBox="0 0 48 48" version="1.1" xmlns="http://www.w3.org/2000/svg" xmlns:xlink="http://www.w3.org/1999/xlink">
    <!-- Generator: Sketch 42 (36781) - http://www.bohemiancoding.com/sketch -->
    <title>btn-youtube</title>
    <desc>Created with Sketch.</desc>
    <defs></defs>
    <g id="Page-1" stroke="none" stroke-width="1" fill="none" fill-rule="evenodd">
        <g id="Desktop-HD-Copy-4" transform="translate(-797.000000, -429.000000)">
            <g id="Group-7">
                <g id="Group-Copy-2">
                    <g id="Group" transform="translate(412.000000, 248.000000)">
                        <g id="Group-13" transform="translate(90.000000, 181.000000)">
                            <g id="Group-10" transform="translate(91.000000, 0.000000)">
                                <g id="btn-youtube" transform="translate(204.000000, 0.000000)">
                                    <circle id="Oval-12-Copy-7" fill="#FFFFFF" cx="24" cy="24" r="24"></circle>
                                    <path d="M21.522,27.134958 L21.52125,20.3438708 L28.00575,23.7511219 L21.522,27.134958 Z M35.76,19.1670814 C35.76,19.1670814 35.52525,17.5015995 34.806,16.7681832 C33.89325,15.8051495 32.87025,15.8006176 32.4015,15.7447239 C29.043,15.5 24.00525,15.5 24.00525,15.5 L23.99475,15.5 C23.99475,15.5 18.957,15.5 15.5985,15.7447239 C15.129,15.8006176 14.10675,15.8051495 13.19325,16.7681832 C12.474,17.5015995 12.24,19.1670814 12.24,19.1670814 C12.24,19.1670814 12,21.1233616 12,23.0788866 L12,24.9128049 C12,26.8690852 12.24,28.8246101 12.24,28.8246101 C12.24,28.8246101 12.474,30.490092 13.19325,31.2235082 C14.10675,32.186542 15.306,32.1563291 15.84,32.2567868 C17.76,32.4425956 24,32.5 24,32.5 C24,32.5 29.043,32.4924468 32.4015,32.2477229 C32.87025,32.1910739 33.89325,32.186542 34.806,31.2235082 C35.52525,30.490092 35.76,28.8246101 35.76,28.8246101 C35.76,28.8246101 36,26.8690852 36,24.9128049 L36,23.0788866 C36,21.1233616 35.76,19.1670814 35.76,19.1670814 L35.76,19.1670814 Z" id="Youtube-Copy-2" fill="#CE1312"></path>
                                </g>
                            </g>
                        </g>
                    </g>
                </g>
            </g>
        </g>
    </g>
</svg>